# xmcd
#
# Track frame offsets:
# 150
# 11661
# 23280
# 34507
# 46956
# 60310
# 73743
# 83128
# 94557
# 105372
# 116689
# 128296
#
# Disc length: 1861 seconds
#
#
# Revision: 0
# Processed by: cddbd v1.5.2PL0 Copyright (c) Steve Scherf et al.
# Submitted via: FreeRIP 2.945 
#
DISCID=7e07430c
DTITLE=Bill Anderson - Get While The Gettin's Good
DYEAR=1900
DGENRE=Country
TTITLE0=Get While The Gettin's Good
TTITLE1=Wheel Of Hurt
TTITLE2=Satisfied Mind
TTITLE3=The First Mrs. Jones
TTITLE4=Bad Seed
TTITLE5=Something To Believe In
TTITLE6=Ride Ride Ride
TTITLE7=Daddy And My Mama And Me
TTITLE8=Open Up Your Heart
TTITLE9=Homesick
TTITLE10=Born
TTITLE11=emember Me
EXTD=
EXTT0=
EXTT1=
EXTT2=
EXTT3=
EXTT4=
EXTT5=
EXTT6=
EXTT7=
EXTT8=
EXTT9=
EXTT10=
EXTT11=
PLAYORDER=
